<svg width="235" height="264" viewBox="0 0 235 264" fill="none" xmlns="http://www.w3.org/2000/svg">
<g clip-path="url(#clip0_11_50)">
<path d="M124.5 264C55.9 264 0 204.8 0 132C0 59.2 55.9 0 124.5 0C131.2 0 137.8 0.6 144.8 1.7C149.2 2.4 152.7 5.8 153.6 10.2C154.5 14.6 152.5 19.1 148.7 21.5C123.2 37.4 107.4 66.8 107.4 98.4C107.4 147.4 144.5 187.2 190.1 187.2C200.3 187.2 210.1 185.3 219.3 181.4C223.5 179.7 228.4 180.7 231.4 184.1C234.5 187.5 235.1 192.4 233 196.4C211.1 238.1 169.5 264 124.5 264ZM114.9 22.1C62.6 27.3 21.6 74.6 21.6 132C21.6 192.9 67.8 242.4 124.5 242.4C152.8 242.4 179.5 229.9 198.6 208.5C195.8 208.7 193 208.9 190.1 208.9C132.6 208.9 85.8 159.4 85.8 98.5C85.9 69.8 96.6 42.4 114.9 22.1Z" fill="white"/>
</g>
<defs>
<clipPath id="clip0_11_50">
<rect width="234.4" height="264" fill="white"/>
</clipPath>
</defs>
</svg>
