<svg width="291" height="291" viewBox="0 0 291 291" fill="none" xmlns="http://www.w3.org/2000/svg">
<g clip-path="url(#clip0_11_26)">
<path d="M145.2 218.7C107 218.7 76 185.6 76 145C76 104.3 107 71.3 145.2 71.3C183.3 71.3 214.4 104.4 214.4 145C214.4 185.7 183.4 218.7 145.2 218.7ZM145.2 86.2C115.3 86.2 90.9 112.6 90.9 145C90.9 177.4 115.2 203.8 145.2 203.8C175.1 203.8 199.5 177.4 199.5 145C199.5 112.6 175.1 86.2 145.2 86.2Z" fill="#020202"/>
<path d="M145.2 53.9C141.1 53.9 137.7 50.6 137.7 46.4V7.5C137.7 3.4 141 0 145.2 0C149.3 0 152.7 3.3 152.7 7.5V46.4C152.7 50.5 149.3 53.9 145.2 53.9Z" fill="#020202"/>
<path d="M145.2 290.4C141.1 290.4 137.7 287.1 137.7 282.9V244C137.7 239.9 141 236.5 145.2 236.5C149.3 236.5 152.7 239.8 152.7 244V283C152.7 287.1 149.3 290.4 145.2 290.4Z" fill="#020202"/>
<path d="M80.5 80.7C77.6 83.6 72.9 83.6 70 80.7L42.4 53.2C39.5 50.3 39.5 45.6 42.4 42.7C45.3 39.8 50 39.8 52.9 42.7L80.5 70.2C83.4 73 83.5 77.8 80.5 80.7Z" fill="#020202"/>
<path d="M248 247.8C245.1 250.7 240.4 250.7 237.5 247.8L209.9 220.3C207 217.4 207 212.7 209.9 209.8C212.8 206.9 217.5 206.9 220.4 209.8L248 237.3C250.9 240.1 250.9 244.9 248 247.8Z" fill="#020202"/>
<path d="M209.9 80.7C212.8 83.6 217.5 83.6 220.4 80.7L248 53.2C250.9 50.3 250.9 45.6 248 42.7C245.1 39.8 240.4 39.8 237.5 42.7L209.9 70.2C207 73 207 77.8 209.9 80.7Z" fill="#020202"/>
<path d="M42.4 247.8C45.3 250.7 50 250.7 52.9 247.8L80.5 220.3C83.4 217.4 83.4 212.7 80.5 209.8C77.6 206.9 72.9 206.9 70 209.8L42.4 237.3C39.5 240.1 39.5 244.9 42.4 247.8Z" fill="#020202"/>
<path d="M236.6 145.4C236.6 141.3 240 138 244.1 138H283C287.1 138 290.4 141.4 290.4 145.5C290.4 149.6 287 153 282.9 152.9L244 152.8C239.9 152.9 236.5 149.5 236.6 145.4Z" fill="#020202"/>
<path d="M0 144.9C0 140.8 3.4 137.4 7.5 137.5L46.4 137.6C50.5 137.6 53.8 141 53.8 145.1C53.8 149.2 50.4 152.5 46.3 152.5L7.4 152.4C3.3 152.4 0 149 0 144.9Z" fill="#020202"/>
</g>
<defs>
<clipPath id="clip0_11_26">
<rect width="290.4" height="290.4" fill="white"/>
</clipPath>
</defs>
</svg>
